<svg xmlns="http://www.w3.org/2000/svg" version="1.1" xmlns:xlink="http://www.w3.org/1999/xlink" width="1000" height="1000"><g clip-path="url(#SvgjsClipPath1232)"><rect width="1000" height="1000" fill="#23272d"></rect><g transform="matrix(1.2379642365887207,0,0,1.2379642365887207,50.00000000000006,75.37826685006883)"><svg xmlns="http://www.w3.org/2000/svg" version="1.1" xmlns:xlink="http://www.w3.org/1999/xlink" width="727" height="686"><svg width="727" height="686" viewBox="0 0 727 686" fill="none" xmlns="http://www.w3.org/2000/svg">
<path d="M309.492 211.207V473.511H290.65V347.901H125.14V473.511H106.299V211.207H125.14V330.906H290.65V211.207H309.492Z" fill="#FFFF00"></path>
<path d="M600.742 473.511V247.782L497.667 424.375H485.106L382.032 247.782V473.511H363.191V211.207H382.032L491.387 398.884L600.742 211.207H619.583V473.511H600.742Z" fill="white"></path>
<path d="M290.652 0.0835151H309.49V211.255H290.652V0.0835151Z" fill="#FFFF00"></path>
<path d="M726.468 0.0835151V18.9212L290.752 18.9212V0.0834961L726.468 0.0835151Z" fill="#FFFF00"></path>
<path d="M707.996 0.0835151H726.834V685.866H707.996V0.0835151Z" fill="#FFFF00"></path>
<path d="M726.834 667.028V685.866H470.568V667.028H726.834Z" fill="#FFFF00"></path>
<path d="M382.022 685.866H363.184V473.511L382.022 473.511V685.866Z" fill="white"></path>
<path d="M0.765503 685.866L0.765505 667.028L381.998 667.028V685.866L0.765503 685.866Z" fill="white"></path>
<path d="M19.6032 685.866H0.765503L0.765563 0.0835135L19.6032 0.0835151L19.6032 685.866Z" fill="white"></path>
<path d="M1.1311 18.9212L1.1311 0.0835151L202.136 0.0835415V18.9212L1.1311 18.9212Z" fill="white"></path>
</svg></svg></g></g><defs><clipPath id="SvgjsClipPath1232"><rect width="1000" height="1000" x="0" y="0" rx="100" ry="100"></rect></clipPath></defs></svg>