<svg width="1519" height="1477" viewBox="0 0 1519 1477" fill="none" xmlns="http://www.w3.org/2000/svg">
<path d="M738.463 298.909C732.852 298.909 728.301 294.358 728.301 288.745V225.73C728.301 220.117 732.852 215.566 738.463 215.566C744.074 215.566 748.624 220.117 748.624 225.73V288.745C748.624 294.358 744.074 298.909 738.463 298.909Z" fill="#ffff00"/>
<path d="M509.379 359.428C504.518 362.234 498.302 360.569 495.495 355.708L463.987 301.135C461.181 296.274 462.846 290.057 467.708 287.251C472.569 284.445 478.785 286.11 481.592 290.971L513.099 345.544C515.906 350.405 514.24 356.621 509.379 359.428Z" fill="#ffff00"/>
<path d="M341.245 526.38C338.439 531.242 332.223 532.907 327.362 530.101L272.789 498.593C267.928 495.787 266.262 489.57 269.069 484.71C271.876 479.848 278.091 478.182 282.953 480.989L337.526 512.497C342.386 515.303 344.052 521.52 341.245 526.38Z" fill="#ffff00"/>
<path d="M279.114 755.036C279.114 760.647 274.564 765.197 268.95 765.197H205.935C200.322 765.197 195.771 760.647 195.771 755.036C195.771 749.417 200.322 744.866 205.935 744.866H268.95C274.564 744.866 279.114 749.417 279.114 755.036Z" fill="#ffff00"/>
<path d="M339.633 984.12C342.44 988.977 340.775 995.193 335.913 997.999L281.341 1029.51C276.479 1032.32 270.263 1030.65 267.457 1025.79C264.65 1020.93 266.315 1014.71 271.177 1011.91L325.749 980.395C330.611 977.589 336.826 979.255 339.633 984.12Z" fill="#ffff00"/>
<path d="M506.586 1152.25C511.448 1155.06 513.113 1161.27 510.306 1166.14L478.799 1220.71C475.993 1225.57 469.776 1227.23 464.916 1224.43C460.054 1221.62 458.388 1215.4 461.195 1210.54L492.703 1155.97C495.509 1151.11 501.725 1149.45 506.586 1152.25Z" fill="#ffff00"/>
<path d="M735.241 1214.38C740.852 1214.38 745.402 1218.93 745.402 1224.54V1287.56C745.402 1293.18 740.852 1297.73 735.241 1297.73C729.629 1297.73 725.071 1293.18 725.071 1287.56V1224.54C725.071 1218.93 729.629 1214.38 735.241 1214.38Z" fill="#ffff00"/>
<path d="M964.325 1153.86C969.182 1151.06 975.398 1152.72 978.203 1157.58L1009.72 1212.16C1012.52 1217.02 1010.86 1223.23 1005.99 1226.04C1001.14 1228.84 994.919 1227.18 992.114 1222.32L960.6 1167.75C957.794 1162.88 959.46 1156.67 964.325 1153.86Z" fill="#ffff00"/>
<path d="M1132.46 986.91C1135.26 982.045 1141.48 980.387 1146.34 983.193L1200.91 1014.7C1205.77 1017.5 1207.44 1023.72 1204.63 1028.59C1201.83 1033.44 1195.61 1035.11 1190.75 1032.3L1136.17 1000.8C1131.32 997.991 1129.65 991.774 1132.46 986.91Z" fill="#ffff00"/>
<path d="M1194.59 758.258C1194.59 752.647 1199.14 748.096 1204.75 748.096H1267.77C1273.38 748.096 1277.93 752.647 1277.93 758.258C1277.93 763.869 1273.38 768.419 1267.77 768.419H1204.75C1199.14 768.419 1194.59 763.869 1194.59 758.258Z" fill="#ffff00"/>
<path d="M967.115 361.04C962.258 358.233 960.592 352.017 963.397 347.156L994.903 292.583C997.709 287.722 1003.93 286.056 1008.79 288.864C1013.65 291.67 1015.31 297.886 1012.51 302.747L981.001 357.32C978.196 362.181 971.979 363.847 967.115 361.04Z" fill="#ffff00"/>
<path d="M1517.72 375.001L1457.44 632.427C1451.78 656.661 1424.77 669.045 1402.71 657.525L1168.3 535.22C1140.21 520.559 1141.24 479.998 1170.04 466.783L1230.66 438.992C1214.41 412.173 1196.1 386.448 1175.17 363.141C1110.41 287.825 1022.22 225.004 927.451 193.663C922.249 191.942 915.034 189.394 909.832 187.641C554.812 73.5463 181.997 311.454 129.59 679.646C84.461 987.264 278.692 1281.81 577.414 1365.97C973.598 1478.08 1392.28 1183.34 1395.93 765.912C1396.13 751.617 1407.94 740.19 1422.23 740.489C1436.15 740.78 1447.26 752.097 1447.47 765.912C1451.38 938.468 1386.36 1110.97 1269.2 1237.9C1025.2 1505.8 611.488 1556.88 313.729 1347.06C88.9979 1191.51 -30.1166 918.027 6.81121 647.28C76.7326 139.359 621.076 -145.461 1080.97 76.5075C1149.97 110.145 1214.37 154.318 1270.21 206.992C1319.1 253.086 1362.2 305.347 1397.6 362.445L1464.72 331.67C1493.53 318.455 1524.94 344.142 1517.72 375.001Z" fill="#ffff00"/>
<path d="M533.007 514.833C543.529 500.782 557.424 489.722 574.692 481.655C591.958 473.591 611.303 469.556 632.73 469.556C652.264 469.556 669.657 472.802 684.905 479.292C700.159 485.785 712.159 494.764 720.922 506.232C729.676 517.701 734.062 531.062 734.062 546.31C734.062 555.007 732.859 563.106 730.47 570.604C728.073 578.103 724.01 585.538 718.273 592.911C712.536 600.284 704.693 608.224 694.736 616.731C684.779 625.239 672.242 634.913 657.118 645.75L602.483 685.069L602.293 686.585H709.299L696.442 747.083H483.381L495.48 692.071L605.318 611.721C615.149 604.413 623.34 598.11 629.895 592.816C636.447 587.524 641.645 582.767 645.491 578.543C649.334 574.322 652.043 570.29 653.62 566.444C655.195 562.601 655.984 558.536 655.984 554.25C655.984 549.334 654.755 545.051 652.297 541.395C649.839 537.74 646.437 534.905 642.088 532.887C637.74 530.873 632.73 529.863 627.059 529.863C620.377 529.863 614.327 531.124 608.91 533.643C603.49 536.166 598.952 539.882 595.299 544.798C591.642 549.713 589.122 555.763 587.737 562.947H515.52C516.654 544.925 522.482 528.888 533.007 514.833Z" fill="#ffff00"/>
<path d="M813.837 648.397H883.411L908.74 529.295H907.231C902.311 534.843 897.179 540.766 891.82 547.066C886.468 553.37 881.014 559.892 875.473 566.633C869.925 573.377 864.408 580.183 858.931 587.051C853.445 593.921 848.085 600.789 842.859 607.657C837.625 614.528 832.588 621.268 827.739 627.886C822.882 634.502 818.308 640.835 814.025 646.884L813.837 648.397ZM868.668 706.625H733.496L747.108 637.243C752.9 629.179 758.825 621.174 764.876 613.234C770.928 605.294 777.168 597.229 783.596 589.036C790.017 580.844 796.76 572.399 803.817 563.703C810.874 555.007 818.348 545.965 826.222 536.574C834.097 527.187 842.451 517.323 851.268 506.987C860.094 496.655 869.485 485.752 879.442 474.282H993.811L957.331 645.372H989.843L976.797 706.625H944.285L935.774 747.082H860.157L868.668 706.625Z" fill="#ffff00"/>
<path d="M493.578 1002.7L504.761 950.036H454.439L443.167 1002.7H409.349L437.034 872.564H470.852L459.851 923.788H510.26L521.263 872.564H555.081L527.396 1002.7H493.578Z" fill="#ffff00"/>
<path d="M613.698 901.068C609.248 903.654 605.34 907.245 601.974 911.843C598.606 916.44 595.991 921.76 594.128 927.804C592.264 933.847 591.333 940.354 591.333 947.325C591.333 953.518 592.37 958.933 594.444 963.561C596.518 968.19 599.463 971.766 603.282 974.289C607.099 976.819 611.593 978.077 616.763 978.077C621.873 978.077 626.669 976.788 631.148 974.202C635.626 971.617 639.534 968.025 642.871 963.428C646.207 958.823 648.823 953.494 650.717 947.419C652.611 941.345 653.557 934.853 653.557 927.937C653.557 921.627 652.505 916.173 650.401 911.568C648.296 906.97 645.336 903.426 641.519 900.927C637.7 898.435 633.206 897.186 628.037 897.186C622.926 897.186 618.146 898.483 613.698 901.068ZM584.75 997.739C576.032 992.93 569.343 986.328 564.685 977.943C560.025 969.558 557.696 959.986 557.696 949.219C557.696 937.62 559.514 926.994 563.151 917.344C566.788 907.693 571.838 899.371 578.302 892.361C584.764 885.358 592.31 879.936 600.937 876.085C609.563 872.234 618.838 870.317 628.758 870.317C641.082 870.317 651.588 872.737 660.275 877.57C668.962 882.411 675.606 889.013 680.205 897.367C684.803 905.728 687.105 915.285 687.105 926.044C687.105 937.706 685.282 948.362 681.651 958.013C678.011 967.664 672.931 975.994 666.408 982.996C659.884 989.998 652.309 995.405 643.683 999.225C635.055 1003.04 625.782 1004.95 615.862 1004.95C603.836 1004.95 593.466 1002.55 584.75 997.739Z" fill="#ffff00"/>
<path d="M724.443 999.358C716.505 995.633 710.414 990.525 706.179 984.034C701.943 977.534 699.821 970.116 699.821 961.754C699.821 959.954 699.907 958.107 700.088 956.213C700.269 954.319 700.567 952.41 700.992 950.484L717.495 872.564H750.589L734.266 949.942C733.967 951.443 733.732 952.873 733.551 954.225C733.37 955.577 733.307 956.889 733.37 958.147C733.425 961.997 734.36 965.322 736.16 968.112C737.967 970.909 740.474 973.063 743.689 974.564C746.911 976.065 750.62 976.819 754.832 976.819C759.218 976.819 763.092 975.963 766.464 974.249C769.827 972.536 772.656 969.99 774.943 966.626C777.222 963.263 778.88 959.168 779.902 954.359L797.215 872.564H830.403L811.55 961.573C809.632 970.658 805.978 978.422 800.594 984.89C795.219 991.35 788.452 996.309 780.303 999.767C772.161 1003.22 763.037 1004.95 752.938 1004.95C741.873 1004.95 732.372 1003.09 724.443 999.358Z" fill="#ffff00"/>
<path d="M871.34 933.8H891.812C896.566 933.8 900.708 932.928 904.26 931.183C907.805 929.446 910.539 927.01 912.465 923.882C914.39 920.754 915.349 917.179 915.349 913.147C915.349 908.039 913.817 904.164 910.752 901.516C907.687 898.868 903.325 897.547 897.675 897.547H879.191L871.34 933.8ZM851.323 872.564H906.783C915.679 872.564 923.255 874.207 929.511 877.484C935.758 880.761 940.529 885.225 943.806 890.875C947.083 896.526 948.718 903.017 948.718 910.349C948.718 916.668 947.484 922.696 945.024 928.432C942.556 934.177 938.98 939.27 934.289 943.718C929.597 948.174 923.86 951.569 917.062 953.911L932.395 1002.7H897.855L884.511 957.156H885.234H866.475L856.824 1002.7H823.637L851.323 872.564Z" fill="#ffff00"/>
<path d="M981.001 964.371C981.426 967.381 982.699 970.037 984.837 972.355C986.966 974.666 989.748 976.489 993.175 977.809C996.601 979.13 1000.45 979.79 1004.72 979.79C1008.87 979.79 1012.49 979.24 1015.59 978.124C1018.68 977.016 1021.1 975.452 1022.85 973.432C1024.59 971.42 1025.46 969.031 1025.46 966.265C1025.46 963.019 1024.33 960.371 1022.08 958.327C1019.82 956.284 1015.39 954.241 1008.78 952.198L996.334 948.41C985.512 945.101 977.324 940.535 971.759 934.704C966.195 928.873 963.421 921.509 963.421 912.605C963.421 904.133 965.653 896.722 970.133 890.38C974.612 884.038 980.781 879.103 988.624 875.59C996.468 872.069 1005.47 870.317 1015.64 870.317C1026.28 870.317 1035.49 871.936 1043.27 875.181C1051.05 878.427 1057.08 883.056 1061.35 889.068C1065.63 895.08 1067.79 902.302 1067.85 910.711H1037.28C1037.22 907.646 1036.3 904.974 1034.53 902.687C1032.75 900.4 1030.32 898.616 1027.22 897.32C1024.12 896.031 1020.47 895.386 1016.26 895.386C1012.3 895.386 1008.85 895.983 1005.94 897.186C1003.02 898.388 1000.81 899.984 999.312 901.964C997.804 903.952 997.057 906.145 997.057 908.55C997.057 911.74 998.275 914.444 1000.71 916.668C1003.14 918.892 1007.27 920.872 1013.1 922.617L1026.1 926.499C1037.51 929.863 1045.92 934.248 1051.3 939.663C1056.68 945.07 1059.37 952.347 1059.37 961.487C1059.37 970.021 1057.08 977.55 1052.52 984.073C1047.95 990.604 1041.55 995.712 1033.31 999.405C1025.07 1003.11 1015.33 1004.95 1004.09 1004.95C993.088 1004.95 983.516 1003.34 975.367 1000.13C967.217 996.914 960.906 992.285 956.427 986.242C951.947 980.199 949.653 972.913 949.527 964.371H981.001Z" fill="#ffff00"/>
<path d="M1098.11 800.648H379.082C377.298 800.648 375.853 799.202 375.853 797.418C375.853 795.634 377.298 794.188 379.082 794.188H1098.11C1099.9 794.188 1101.34 795.634 1101.34 797.418C1101.34 799.202 1099.9 800.648 1098.11 800.648Z" fill="#ffff00"/>
</svg>
