<svg width="1519" height="1477" viewBox="0 0 1519 1477" fill="none" xmlns="http://www.w3.org/2000/svg">
<path d="M738.463 298.909C732.852 298.909 728.301 294.358 728.301 288.745V225.73C728.301 220.117 732.852 215.566 738.463 215.566C744.074 215.566 748.624 220.117 748.624 225.73V288.745C748.624 294.358 744.074 298.909 738.463 298.909Z" fill="#D9D9D9"/>
<path d="M509.379 359.428C504.518 362.234 498.302 360.569 495.495 355.708L463.987 301.135C461.181 296.274 462.846 290.057 467.708 287.251C472.569 284.445 478.785 286.11 481.592 290.971L513.099 345.544C515.906 350.405 514.24 356.621 509.379 359.428Z" fill="#D9D9D9"/>
<path d="M341.245 526.38C338.439 531.242 332.223 532.907 327.362 530.101L272.789 498.593C267.928 495.787 266.262 489.57 269.069 484.71C271.876 479.848 278.091 478.182 282.953 480.989L337.526 512.497C342.386 515.303 344.052 521.52 341.245 526.38Z" fill="#D9D9D9"/>
<path d="M279.114 755.036C279.114 760.647 274.564 765.197 268.95 765.197H205.935C200.322 765.197 195.771 760.647 195.771 755.036C195.771 749.417 200.322 744.866 205.935 744.866H268.95C274.564 744.866 279.114 749.417 279.114 755.036Z" fill="#D9D9D9"/>
<path d="M339.633 984.12C342.44 988.977 340.775 995.193 335.913 997.999L281.341 1029.51C276.479 1032.32 270.263 1030.65 267.457 1025.79C264.65 1020.93 266.315 1014.71 271.177 1011.91L325.749 980.395C330.611 977.589 336.826 979.255 339.633 984.12Z" fill="#D9D9D9"/>
<path d="M506.586 1152.25C511.448 1155.06 513.113 1161.27 510.306 1166.14L478.799 1220.71C475.993 1225.57 469.776 1227.23 464.916 1224.43C460.054 1221.62 458.388 1215.4 461.195 1210.54L492.703 1155.97C495.509 1151.11 501.725 1149.45 506.586 1152.25Z" fill="#D9D9D9"/>
<path d="M735.241 1214.38C740.852 1214.38 745.402 1218.93 745.402 1224.54V1287.56C745.402 1293.18 740.852 1297.73 735.241 1297.73C729.629 1297.73 725.071 1293.18 725.071 1287.56V1224.54C725.071 1218.93 729.629 1214.38 735.241 1214.38Z" fill="#D9D9D9"/>
<path d="M964.325 1153.86C969.182 1151.06 975.398 1152.72 978.203 1157.58L1009.72 1212.16C1012.52 1217.02 1010.86 1223.23 1005.99 1226.04C1001.14 1228.84 994.919 1227.18 992.114 1222.32L960.6 1167.75C957.794 1162.88 959.46 1156.67 964.325 1153.86Z" fill="#D9D9D9"/>
<path d="M1132.46 986.91C1135.26 982.045 1141.48 980.387 1146.34 983.193L1200.91 1014.7C1205.77 1017.5 1207.44 1023.72 1204.63 1028.59C1201.83 1033.44 1195.61 1035.11 1190.75 1032.3L1136.17 1000.8C1131.32 997.991 1129.65 991.774 1132.46 986.91Z" fill="#D9D9D9"/>
<path d="M1194.59 758.258C1194.59 752.647 1199.14 748.096 1204.75 748.096H1267.77C1273.38 748.096 1277.93 752.647 1277.93 758.258C1277.93 763.869 1273.38 768.419 1267.77 768.419H1204.75C1199.14 768.419 1194.59 763.869 1194.59 758.258Z" fill="#D9D9D9"/>
<path d="M967.115 361.04C962.258 358.233 960.592 352.017 963.397 347.156L994.903 292.583C997.709 287.722 1003.93 286.056 1008.79 288.864C1013.65 291.67 1015.31 297.886 1012.51 302.747L981.001 357.32C978.196 362.181 971.979 363.847 967.115 361.04Z" fill="#D9D9D9"/>
<path d="M1517.72 375.001L1457.44 632.427C1451.78 656.661 1424.77 669.045 1402.71 657.525L1168.3 535.22C1140.21 520.559 1141.24 479.998 1170.05 466.783L1230.66 438.992C1214.41 412.173 1196.1 386.448 1175.17 363.141C1110.41 287.825 1022.22 225.004 927.451 193.663C922.249 191.942 915.034 189.394 909.832 187.641C554.812 73.5463 181.997 311.454 129.59 679.646C84.461 987.264 278.692 1281.81 577.414 1365.97C973.598 1478.08 1392.28 1183.34 1395.93 765.912C1396.13 751.617 1407.94 740.19 1422.23 740.489C1436.15 740.78 1447.26 752.096 1447.47 765.912C1451.38 938.468 1386.36 1110.97 1269.2 1237.9C1025.2 1505.8 611.488 1556.88 313.729 1347.06C88.9979 1191.51 -30.1166 918.027 6.81121 647.28C76.7326 139.359 621.076 -145.461 1080.97 76.5075C1149.97 110.145 1214.37 154.318 1270.21 206.992C1319.1 253.086 1362.2 305.347 1397.6 362.445L1464.72 331.67C1493.53 318.455 1524.94 344.142 1517.72 375.001Z" fill="#ff7700"/>
<path d="M522.16 797.376C515.845 797.376 510.298 796.438 505.52 794.56C500.741 792.683 496.133 789.696 491.696 785.6C491.098 785.003 490.586 784.363 490.16 783.68C489.818 782.912 489.648 782.102 489.648 781.248C489.648 779.883 490.117 778.688 491.056 777.664C492.08 776.555 493.317 776 494.768 776C495.962 776 497.029 776.47 497.968 777.408C501.296 780.651 504.88 783.126 508.72 784.832C512.645 786.539 517.04 787.392 521.904 787.392C525.658 787.392 529.029 786.795 532.016 785.6C535.088 784.406 537.52 782.742 539.312 780.608C541.104 778.475 542 776 542 773.184C541.914 769.771 540.89 766.955 538.928 764.736C537.05 762.518 534.405 760.683 530.992 759.232C527.664 757.696 523.781 756.416 519.344 755.392C515.418 754.454 511.792 753.302 508.464 751.936C505.221 750.571 502.405 748.907 500.016 746.944C497.626 744.896 495.749 742.464 494.384 739.648C493.104 736.747 492.464 733.376 492.464 729.536C492.464 724.672 493.744 720.406 496.304 716.736C498.864 713.067 502.405 710.251 506.928 708.288C511.45 706.24 516.656 705.216 522.544 705.216C527.749 705.216 532.656 706.07 537.264 707.776C541.957 709.483 545.712 711.83 548.528 714.816C550.234 716.438 551.088 718.016 551.088 719.552C551.088 720.832 550.533 722.027 549.424 723.136C548.4 724.16 547.205 724.672 545.84 724.672C544.901 724.672 544.048 724.331 543.28 723.648C541.829 722.027 539.994 720.576 537.776 719.296C535.557 718.016 533.125 716.992 530.48 716.224C527.834 715.456 525.189 715.072 522.544 715.072C518.618 715.072 515.162 715.67 512.176 716.864C509.189 717.974 506.842 719.595 505.136 721.728C503.514 723.776 502.704 726.251 502.704 729.152C502.704 732.395 503.642 735.083 505.52 737.216C507.397 739.264 509.914 740.971 513.072 742.336C516.229 743.616 519.728 744.768 523.568 745.792C527.749 746.816 531.589 748.011 535.088 749.376C538.672 750.656 541.744 752.278 544.304 754.24C546.864 756.203 548.826 758.72 550.192 761.792C551.642 764.779 552.368 768.491 552.368 772.928C552.368 777.622 551.045 781.803 548.4 785.472C545.754 789.142 542.128 792.043 537.52 794.176C532.997 796.224 527.877 797.291 522.16 797.376ZM574.668 706.496H620.236C621.686 706.496 622.924 706.966 623.948 707.904C624.972 708.843 625.484 710.038 625.484 711.488C625.484 712.939 624.972 714.134 623.948 715.072C622.924 715.926 621.686 716.352 620.236 716.352H579.02L580.172 714.176V746.56L578.892 745.152H614.476C615.926 745.152 617.164 745.622 618.188 746.56C619.212 747.499 619.724 748.694 619.724 750.144C619.724 751.595 619.212 752.79 618.188 753.728C617.164 754.582 615.926 755.008 614.476 755.008H579.276L580.172 753.856V787.008L579.404 786.112H620.236C621.686 786.112 622.924 786.624 623.948 787.648C624.972 788.672 625.484 789.824 625.484 791.104C625.484 792.555 624.972 793.75 623.948 794.688C622.924 795.627 621.686 796.096 620.236 796.096H574.668C573.217 796.096 571.98 795.584 570.956 794.56C570.017 793.536 569.548 792.299 569.548 790.848V711.616C569.548 710.166 570.017 708.971 570.956 708.032C571.98 707.008 573.217 706.496 574.668 706.496ZM648.436 796.096C646.814 796.096 645.406 795.584 644.212 794.56C643.102 793.536 642.548 792.299 642.548 790.848V711.616C642.548 710.166 643.017 708.971 643.956 708.032C644.98 707.008 646.217 706.496 647.668 706.496H682.996C687.774 706.496 692.084 707.606 695.924 709.824C699.764 711.958 702.793 714.944 705.012 718.784C707.316 722.539 708.468 726.891 708.468 731.84C708.468 735.424 707.785 738.795 706.42 741.952C705.054 745.024 703.177 747.712 700.788 750.016C698.398 752.235 695.668 753.942 692.596 755.136L689.78 753.088C692.681 753.771 695.284 755.008 697.588 756.8C699.892 758.507 701.769 760.726 703.22 763.456C704.67 766.102 705.438 769.216 705.524 772.8C705.694 775.958 705.908 778.475 706.164 780.352C706.42 782.23 706.804 783.723 707.316 784.832C707.828 785.856 708.553 786.667 709.492 787.264C710.686 788.032 711.454 789.056 711.796 790.336C712.222 791.616 712.009 792.854 711.156 794.048C710.644 794.816 709.918 795.371 708.98 795.712C708.041 795.968 707.102 796.054 706.164 795.968C705.225 795.883 704.414 795.627 703.732 795.2C702.366 794.432 701.044 793.323 699.764 791.872C698.484 790.336 697.417 788.16 696.564 785.344C695.71 782.528 695.284 778.688 695.284 773.824C695.284 771.094 694.857 768.832 694.004 767.04C693.15 765.248 691.998 763.798 690.548 762.688C689.097 761.579 687.476 760.811 685.684 760.384C683.892 759.958 682.057 759.744 680.18 759.744H651.636L653.172 757.44V790.848C653.172 792.299 652.745 793.536 651.892 794.56C651.038 795.584 649.886 796.096 648.436 796.096ZM651.636 750.528H682.996C685.47 750.358 687.774 749.504 689.908 747.968C692.126 746.432 693.918 744.299 695.284 741.568C696.734 738.752 697.46 735.595 697.46 732.096C697.46 727.574 696.009 723.819 693.108 720.832C690.292 717.846 686.708 716.352 682.356 716.352H652.148L653.172 713.92V752.832L651.636 750.528ZM792.197 706.368C793.647 706.368 794.885 706.838 795.909 707.776C796.933 708.63 797.445 709.782 797.445 711.232C797.445 711.915 797.274 712.683 796.933 713.536L763.525 792.768C763.013 793.878 762.287 794.731 761.349 795.328C760.495 795.84 759.557 796.096 758.533 796.096C757.594 796.011 756.698 795.712 755.845 795.2C754.991 794.603 754.351 793.792 753.925 792.768L720.645 713.664C720.474 713.323 720.346 712.982 720.261 712.64C720.175 712.214 720.133 711.787 720.133 711.36C720.133 709.739 720.687 708.502 721.797 707.648C722.991 706.71 724.143 706.24 725.253 706.24C727.557 706.24 729.221 707.435 730.245 709.824L760.837 782.784H757.893L787.461 709.568C788.485 707.435 790.063 706.368 792.197 706.368ZM823.422 790.848C823.422 792.299 822.867 793.536 821.758 794.56C820.734 795.584 819.496 796.096 818.046 796.096C816.424 796.096 815.144 795.584 814.206 794.56C813.267 793.536 812.798 792.299 812.798 790.848V711.744C812.798 710.208 813.31 708.971 814.334 708.032C815.358 707.008 816.638 706.496 818.174 706.496C819.624 706.496 820.862 707.008 821.886 708.032C822.91 708.971 823.422 710.208 823.422 711.744V790.848ZM910.435 712.384C911.885 713.152 912.696 714.304 912.867 715.84C913.123 717.376 912.739 718.784 911.715 720.064C910.947 721.174 909.965 721.771 908.771 721.856C907.576 721.942 906.381 721.686 905.187 721.088C902.371 719.382 899.341 718.059 896.099 717.12C892.856 716.096 889.443 715.584 885.859 715.584C880.824 715.584 876.216 716.48 872.035 718.272C867.853 719.979 864.227 722.411 861.155 725.568C858.083 728.726 855.693 732.48 853.987 736.832C852.28 741.184 851.427 746.006 851.427 751.296C851.427 756.928 852.323 761.963 854.115 766.4C855.907 770.838 858.339 774.635 861.411 777.792C864.568 780.864 868.195 783.211 872.291 784.832C876.472 786.454 880.995 787.264 885.859 787.264C889.357 787.264 892.728 786.795 895.971 785.856C899.213 784.918 902.285 783.552 905.187 781.76C906.381 781.163 907.576 780.95 908.771 781.12C909.965 781.291 910.989 781.888 911.843 782.912C912.867 784.278 913.251 785.728 912.995 787.264C912.739 788.715 911.928 789.782 910.563 790.464C908.429 791.744 905.997 792.939 903.267 794.048C900.536 795.072 897.677 795.883 894.691 796.48C891.789 797.078 888.845 797.376 885.859 797.376C879.715 797.376 873.912 796.31 868.451 794.176C862.989 792.043 858.168 788.971 853.987 784.96C849.805 780.95 846.477 776.128 844.003 770.496C841.613 764.779 840.419 758.379 840.419 751.296C840.419 744.64 841.571 738.539 843.875 732.992C846.179 727.446 849.379 722.624 853.475 718.528C857.656 714.432 862.477 711.232 867.939 708.928C873.485 706.624 879.459 705.472 885.859 705.472C890.296 705.472 894.605 706.07 898.787 707.264C903.053 708.459 906.936 710.166 910.435 712.384ZM933.543 706.496H979.111C980.561 706.496 981.799 706.966 982.823 707.904C983.847 708.843 984.359 710.038 984.359 711.488C984.359 712.939 983.847 714.134 982.823 715.072C981.799 715.926 980.561 716.352 979.111 716.352H937.895L939.047 714.176V746.56L937.767 745.152H973.351C974.801 745.152 976.039 745.622 977.063 746.56C978.087 747.499 978.599 748.694 978.599 750.144C978.599 751.595 978.087 752.79 977.063 753.728C976.039 754.582 974.801 755.008 973.351 755.008H938.151L939.047 753.856V787.008L938.279 786.112H979.111C980.561 786.112 981.799 786.624 982.823 787.648C983.847 788.672 984.359 789.824 984.359 791.104C984.359 792.555 983.847 793.75 982.823 794.688C981.799 795.627 980.561 796.096 979.111 796.096H933.543C932.092 796.096 930.855 795.584 929.831 794.56C928.892 793.536 928.423 792.299 928.423 790.848V711.616C928.423 710.166 928.892 708.971 929.831 708.032C930.855 707.008 932.092 706.496 933.543 706.496Z" fill="#D9D9D9"/>
</svg>
