<svg width="574" height="574" viewBox="0 0 574 574" fill="none" xmlns="http://www.w3.org/2000/svg">
<path d="M307.984 309.945H305.253V263.525C305.253 262.016 304.031 260.795 302.522 260.795H286.136C284.627 260.795 283.405 262.016 283.405 263.525V309.945H272.482V154.302C272.482 152.794 271.26 151.571 269.751 151.571H253.365C251.856 151.571 250.634 152.794 250.634 154.302V309.945H239.71V184.338C239.71 182.83 238.489 181.608 236.979 181.608H220.594C219.084 181.608 217.863 182.83 217.863 184.338V309.945H206.939V236.22C206.939 234.712 205.717 233.489 204.208 233.489H187.823C186.313 233.489 185.092 234.712 185.092 236.22V309.945H174.168V208.914C174.168 207.406 172.946 206.183 171.437 206.183H155.051C153.542 206.183 152.32 207.406 152.32 208.914V309.945H149.589C148.08 309.945 146.858 311.167 146.858 312.676C146.858 314.185 148.08 315.407 149.589 315.407H307.984C309.493 315.407 310.715 314.185 310.715 312.676C310.715 311.167 309.493 309.945 307.984 309.945Z" fill="#ff7700"/>
<path d="M88.8154 55.5123C92.8655 51.4681 99.919 51.4681 103.969 55.5123L183.536 135.069C187.711 139.25 187.711 146.046 183.536 150.221L145.646 112.339C143.654 110.263 140.063 110.263 138.07 112.339L130.493 119.918L119.123 108.551L126.699 100.973C128.792 98.8798 128.792 95.4896 126.699 93.3969L88.8154 55.5152V55.5123ZM115.334 97.1847L37.6666 174.848C30.3566 182.157 30.3566 194.054 37.6666 201.363C44.9787 208.674 56.8732 208.674 64.1853 201.363L141.858 123.703L179.747 161.585C181.841 163.677 185.231 163.677 187.324 161.585L191.112 157.796C199.464 149.446 199.464 135.854 191.112 127.493L164.405 100.789C170.008 93.6659 169.25 82.6505 162.694 76.3512C156.028 69.6908 145.602 69.1704 138.262 74.6493L111.546 47.9365C103.568 39.6252 89.213 39.6242 81.2386 47.9365L77.45 51.7271C75.3571 53.8201 75.3571 57.2103 77.45 59.3029L115.334 97.1847Z" fill="#ff7700"/>
<path d="M525.766 152.944C520.49 152.944 516.208 157.226 516.208 162.501C516.208 167.776 520.49 172.057 525.766 172.057C531.042 172.057 535.324 167.776 535.324 162.501C535.324 157.226 531.042 152.944 525.766 152.944Z" fill="#ff7700"/>
<path d="M363.283 172.057H468.419C473.702 172.057 477.977 167.783 477.977 162.501C477.977 157.219 473.702 152.944 468.419 152.944H363.283C358.001 152.944 353.726 157.219 353.726 162.501C353.726 167.783 358.001 172.057 363.283 172.057Z" fill="#ff7700"/>
<path d="M363.283 76.4921H468.419C473.702 76.4921 477.977 72.2171 477.977 66.9355C477.977 61.6539 473.702 57.3789 468.419 57.3789H363.283C358.001 57.3789 353.726 61.6539 353.726 66.9355C353.726 72.2171 358.001 76.4921 363.283 76.4921Z" fill="#ff7700"/>
<path d="M363.283 124.275H468.419C473.702 124.275 477.977 120 477.977 114.718C477.977 109.437 473.702 105.162 468.419 105.162H363.283C358.001 105.162 353.726 109.437 353.726 114.718C353.726 120 358.001 124.275 363.283 124.275Z" fill="#ff7700"/>
<path d="M525.766 248.51H363.283C358.001 248.51 353.726 252.785 353.726 258.067C353.726 263.348 358.001 267.623 363.283 267.623H525.766C531.048 267.623 535.324 263.348 535.324 258.067C535.324 252.785 531.048 248.51 525.766 248.51Z" fill="#ff7700"/>
<path d="M525.766 296.293H363.283C358.001 296.293 353.726 300.568 353.726 305.85C353.726 311.131 358.001 315.406 363.283 315.406H525.766C531.048 315.406 535.324 311.131 535.324 305.85C535.324 300.568 531.048 296.293 525.766 296.293Z" fill="#ff7700"/>
<path d="M525.766 47.8223C520.484 47.8223 516.208 52.0972 516.208 57.3788V124.275C516.208 129.556 520.484 133.831 525.766 133.831C531.048 133.831 535.324 129.556 535.324 124.275V57.3788C535.324 52.0972 531.048 47.8223 525.766 47.8223Z" fill="#ff7700"/>
<path d="M554.44 363.189H19.2021V28.7088C19.2021 23.4399 23.484 19.1522 28.7599 19.1522H544.882C550.158 19.1522 554.44 23.4399 554.44 28.7088V363.189ZM286.821 420.529C281.545 420.529 277.263 416.247 277.263 410.972C277.263 405.697 281.545 401.415 286.821 401.415C292.097 401.415 296.379 405.697 296.379 410.972C296.379 416.247 292.097 420.529 286.821 420.529ZM544.882 0.0390625H28.7599C12.9512 0.0390625 0.0864258 12.9022 0.0864258 28.7088V430.085C0.0864258 445.892 12.9512 458.755 28.7599 458.755H210.894L193.689 516.094H191.243C164.895 516.094 143.454 537.533 143.454 563.877C143.454 569.152 147.729 573.434 153.011 573.434H420.63C425.912 573.434 430.188 569.152 430.188 563.877C430.188 537.533 408.747 516.094 382.399 516.094H379.952L362.748 458.755H544.882C560.69 458.755 573.555 445.892 573.555 430.085V28.7088C573.555 12.9022 560.69 0.0390625 544.882 0.0390625Z" fill="#ff7700"/>
</svg>
