<svg width="2542" height="1458" viewBox="0 0 2542 1458" fill="none" xmlns="http://www.w3.org/2000/svg">
<path d="M2243.09 854.66C2196.02 793.9 2035.3 569.49 1942.24 230.152C1938.22 215.488 1934.33 200.626 1930.6 185.542C1929.98 183.115 1929.38 180.688 1928.79 178.26L2137.91 72.99L2467.67 772.08L2243.09 854.66ZM1928.56 1142.31C1897.68 1145.21 1866 1134.83 1841.6 1113.82L1431.91 761.33C1418.96 750.18 1399.42 751.65 1388.27 764.6C1377.1 777.58 1378.56 797.12 1391.54 808.27L1801.22 1160.76C1808.9 1167.37 1817.05 1173.29 1825.6 1178.45C1826.66 1196.92 1826.91 1244.11 1805.09 1272.15C1795.53 1284.43 1783.12 1291.15 1766 1293.23C1746.11 1295.65 1725.65 1290.48 1708.44 1278.89C1705.42 1276.85 1702.47 1274.6 1699.67 1272.17L1679.56 1254.76L1272 901.8C1259.07 890.6 1239.51 892.01 1228.33 904.92C1217.14 917.85 1218.53 937.42 1231.46 948.61L1645.65 1307.32C1643.91 1318.17 1640.45 1332.02 1633.51 1345.42C1623.38 1364.93 1605.13 1378.75 1583.4 1383.31C1561.18 1387.94 1538.37 1382.45 1520.76 1368.2L1302.87 1191.97C1289.56 1181.22 1270.07 1183.28 1259.32 1196.58C1248.57 1209.88 1250.63 1229.37 1263.93 1240.12L1417.42 1364.27C1408.14 1373.55 1392.93 1384.9 1370.34 1391.17C1322.78 1404.34 1259.84 1389.83 1187.44 1349.18L1222.12 1295.51C1257.91 1240.05 1241.93 1165.79 1186.47 1130C1163.09 1114.91 1136.37 1109.02 1110.58 1111.42C1111.5 1099.48 1110.7 1087.32 1108.1 1075.26C1101.07 1042.64 1081.85 1014.75 1053.96 996.74C1026.07 978.73 992.75 972.69 960.13 979.72C945.02 982.97 930.95 988.81 918.4 996.96C911.39 970.31 894.79 946.11 869.87 930.03C827.24 902.52 773 907 735.574 937.42C728.713 908.51 711.325 883.82 686.407 867.74C660.795 851.19 630.18 845.65 600.234 852.11C570.289 858.55 544.676 876.21 528.155 901.82L497.789 948.83C440.249 916.14 395.342 890.78 371.638 877.4C477.576 692.69 536.651 521.27 568.256 405.197C585.942 340.128 597.064 285.759 603.851 245.757L990.6 275.901C956.66 317.811 944.7 375.003 940.49 410.448C939.13 421.966 934 432.468 926.08 440.022C885.35 478.812 870.1 529.49 883.07 582.77C892.39 621.06 921.84 651.48 959.91 662.15C978.02 667.21 995.9 669.73 1013.49 669.73C1074.44 669.73 1131.91 639.49 1181.99 580.44C1218.87 536.94 1241.27 489.88 1249.04 472.024L1301.78 426.003L1938.32 1019.35C1959.28 1038.87 1971.91 1065.79 1972.95 1093.17C1974.19 1125.42 1961.76 1139.19 1928.56 1142.31ZM1059.85 1383.73C1049.13 1383.73 1038.28 1380.76 1028.62 1374.52C1007.24 1360.72 998 1335.11 1003.95 1311.71C1005.43 1305.79 1007.91 1300.01 1011.4 1294.61L1034.96 1258.13L1073.01 1199.23C1084.05 1182.11 1102.65 1172.8 1121.63 1172.8C1132.38 1172.8 1143.23 1175.77 1152.89 1182.01C1179.66 1199.3 1187.37 1235.14 1170.1 1261.92L1134.33 1317.3L1108.5 1357.3C1105.8 1361.47 1102.68 1365.18 1099.19 1368.4C1088.36 1378.41 1074.2 1383.73 1059.85 1383.73ZM860.19 1296.84V1296.87C832.82 1279.18 823.8 1243.59 838.54 1215.25V1215.23C839.43 1213.49 840.42 1211.81 841.51 1210.13L871.93 1163.01L933.63 1067.43C952.4 1038.38 991.32 1030 1020.37 1048.75C1034.37 1057.79 1044.03 1071.84 1047.57 1088.29C1051.11 1104.73 1048.09 1121.5 1039.05 1135.5L980.52 1226.15L946.93 1278.17C946.93 1278.19 946.91 1278.19 946.88 1278.22C928.11 1307.25 889.22 1315.62 860.19 1296.84ZM736.539 1204.9C732.775 1205.72 728.985 1206.11 725.246 1206.11C715.263 1206.11 705.529 1203.26 697.007 1197.77C672.659 1182.06 665.65 1149.46 681.379 1125.14L681.552 1124.87L715.189 1072.78L763.638 997.7C773.69 982.15 790.61 973.68 807.88 973.68C817.63 973.68 827.49 976.38 836.29 982.05C860.61 997.78 867.64 1030.35 851.91 1054.7L806.41 1125.19L772.78 1177.28L769.66 1182.14C762.077 1193.85 750.336 1201.93 736.539 1204.9ZM588.865 1087.15C585.101 1087.96 581.31 1088.36 577.57 1088.36C567.587 1088.36 557.854 1085.54 549.333 1080.04C533.753 1069.96 525.257 1052.99 525.307 1035.7C525.332 1025.99 528.056 1016.16 533.704 1007.39L551.711 979.47L580.171 935.41C587.726 923.69 599.492 915.59 613.288 912.65C617.027 911.83 620.817 911.43 624.557 911.43C634.54 911.43 644.299 914.26 652.819 919.75C664.535 927.33 672.61 939.08 675.582 952.87C678.555 966.64 676.003 980.69 668.449 992.4L643.16 1031.59L621.981 1064.38C617.523 1071.27 611.628 1076.92 604.717 1080.95C599.863 1083.85 594.538 1085.93 588.865 1087.15ZM294.011 887.11L71.6819 813.67L332.849 86.167L550.051 186.558C539.871 266.637 490.729 562.93 294.011 887.11ZM1198.31 193.32C1214.98 180.861 1233.44 171.647 1253.13 165.95C1322.9 145.788 1461.98 126.963 1609.51 227.304C1637.72 246.5 1672 256.16 1706.04 254.475L1882.32 245.781C1937.9 448.593 2016.45 609.49 2075.62 712.93C2107.02 767.79 2135.85 811.87 2158.66 844.44L1975.71 969.53L1323.8 361.9C1323.55 361.652 1323.33 361.43 1323.08 361.207C1323.03 361.157 1322.95 361.107 1322.9 361.058C1311.43 350.953 1293.95 350.63 1282.08 360.983L1256.22 383.548L1202.92 430.09C1199.16 433.384 1196.23 437.521 1194.43 442.177C1193.66 444.159 1114.97 641.32 976.63 602.51C960.06 597.88 947.28 584.7 943.24 568.1C935.39 535.93 943.76 508.71 968.8 484.85C987.13 467.368 998.92 443.54 1001.99 417.755C1005.34 389.592 1017.67 321.328 1060 295.989C1062.5 294.503 1065.77 292.472 1069.12 289.97L1078.75 282.762L1153.93 226.511L1198.31 193.32ZM2538.11 776.24L2180.37 17.8289C2176.8 10.2749 2170.34 4.47895 2162.44 1.77895C2154.56 -0.945048 2145.89 -0.376063 2138.44 3.38894L1879.08 133.973C1866.32 140.388 1859.61 154.68 1862.82 168.6C1864.06 173.95 1865.3 179.251 1866.59 184.552L1702.99 192.626C1682.36 193.667 1661.5 187.772 1644.34 176.081C1475.88 61.5229 1316.17 83.2949 1235.94 106.454C1209.04 114.232 1183.9 126.765 1161.23 143.731L1060.3 219.229L612.743 184.354C613.708 175.858 614.08 171.028 614.155 170.21C615.145 157.305 608.012 145.144 596.27 139.719L328.119 15.749C320.241 12.107 311.176 11.9589 303.176 15.3029C295.15 18.6719 288.934 25.235 285.985 33.409L2.67385 822.63C-0.149154 830.51 0.32085 839.18 3.98685 846.69C7.65285 854.17 14.1668 859.89 22.1178 862.51L297.826 953.56C301.045 954.63 304.315 955.15 307.535 955.15C317.988 955.15 328.044 949.82 333.815 940.56C335.871 937.24 337.927 933.95 339.958 930.63C363.39 943.83 409.163 969.71 468.139 1003.2C464.944 1013.85 463.383 1024.8 463.383 1035.7C463.383 1073.33 481.861 1110.18 515.746 1132.05C534.397 1144.09 555.699 1150.31 577.447 1150.31C585.571 1150.31 593.769 1149.44 601.919 1147.68C605.114 1146.99 608.259 1146.17 611.355 1145.23C611.158 1147.98 611.059 1150.7 611.059 1153.45C611.059 1191.08 629.536 1227.93 663.421 1249.81C682.072 1261.84 703.374 1268.06 725.121 1268.06C733.246 1268.06 741.445 1267.19 749.594 1265.44C756.827 1263.88 763.811 1261.67 770.47 1258.85C774.73 1294.47 794.23 1327.95 826.6 1348.88C847.46 1362.36 870.86 1368.77 894.02 1368.77C911.46 1368.77 928.77 1365.11 944.75 1358.05C948.34 1371.1 954.01 1383.24 961.52 1394.11C970.31 1406.87 981.63 1417.89 995.03 1426.54C1015.05 1439.46 1037.54 1445.63 1059.75 1445.63C1095.17 1445.63 1129.98 1429.95 1153.23 1400.97C1219.54 1438.87 1279.78 1457.92 1333.13 1457.92C1351.91 1457.92 1369.84 1455.57 1386.88 1450.83C1424.93 1440.28 1450.32 1419.8 1465.6 1403.23L1481.82 1416.35C1506.47 1436.29 1536.74 1446.87 1567.77 1446.85C1577.19 1446.85 1586.67 1445.88 1596.09 1443.92C1636.11 1435.53 1669.77 1410.01 1688.5 1373.9C1693.65 1363.97 1697.52 1353.99 1700.46 1344.52C1718.25 1351.88 1737.25 1355.74 1756.37 1355.74C1762.09 1355.74 1767.81 1355.4 1773.51 1354.7C1806.65 1350.64 1834.47 1335.24 1853.98 1310.17C1879.89 1276.85 1886.73 1233.26 1887.84 1202C1897.95 1203.79 1908.18 1204.7 1918.43 1204.7C1923.73 1204.7 1929.06 1204.45 1934.36 1203.96C1971.19 1200.49 1998.69 1186.47 2016.02 1162.25C2029.6 1143.3 2035.91 1119.27 2034.82 1090.79C2033.86 1065.45 2026.77 1040.46 2014.54 1017.99L2195.41 894.33C2203.7 904.97 2208.65 910.76 2209.32 911.56C2215.34 918.57 2223.99 922.38 2232.85 922.38C2236.45 922.38 2240.04 921.76 2243.53 920.47L2520.8 818.52C2528.95 815.53 2535.46 809.23 2538.76 801.18C2542.05 793.16 2541.8 784.09 2538.11 776.24Z" fill="#ff7700"/>
</svg>
