<svg width="927" height="458" viewBox="0 0 927 458" fill="none" xmlns="http://www.w3.org/2000/svg">
<path d="M697.095 87.3835L842.511 91.7882L697.095 96.1938V87.3835Z" fill="#D9D9D9"/>
<path d="M780.833 200.309L926.244 204.714L780.833 209.12V200.309Z" fill="#D9D9D9"/>
<path d="M742.625 140.751L905.147 145.157L742.625 149.563V140.751Z" fill="#D9D9D9"/>
<mask id="mask0_14_123" style="mask-type:luminance" maskUnits="userSpaceOnUse" x="0" y="0" width="601" height="399">
<path d="M585.885 53.816C553.052 34.9641 516.657 20.2401 478.553 11.1447C440.469 1.99873 400.747 -1.46071 361.81 0.841796C322.865 3.12984 284.514 11.1736 249.02 24.2584C213.493 37.2997 180.866 55.3045 152.461 76.401C145.325 81.6309 138.53 87.1708 131.922 92.752C125.336 98.3672 119.05 104.177 112.984 110.047C111.491 111.54 110.003 113.028 108.519 114.512L106.304 116.737L104.144 119.005C102.71 120.515 101.282 122.021 99.857 123.523C98.4685 125.056 97.084 126.585 95.7037 128.109L93.6447 130.394L91.6403 132.716C90.3107 134.261 88.9851 135.801 87.6648 137.337C86.3785 138.901 85.0974 140.46 83.8194 142.014C83.184 142.791 82.5496 143.568 81.9163 144.343C81.2985 145.132 80.6827 145.919 80.0669 146.705C78.8395 148.275 77.6173 149.842 76.3992 151.401C75.2173 152.988 74.0395 154.569 72.8659 156.145C72.2801 156.932 71.6953 157.717 71.1126 158.501C70.5464 159.299 69.9823 160.096 69.4192 160.89C68.2952 162.479 67.1752 164.061 66.0594 165.638C61.7119 172.024 57.5287 178.356 53.705 184.756C45.9863 197.504 39.2883 210.215 33.606 222.712C22.1906 247.692 14.6021 271.625 9.67911 293.083C7.22227 303.818 5.36466 313.931 4.04636 323.32C3.69198 325.661 3.44299 327.972 3.14648 330.221C3.00493 331.346 2.86443 332.458 2.72598 333.559C2.6144 334.663 2.50489 335.755 2.39641 336.833C2.18461 338.989 1.97694 341.093 1.77444 343.147C1.6205 345.203 1.46967 347.208 1.32296 349.162C0.212316 364.78 0.343532 377.039 0.611119 385.366C0.681374 389.529 0.928295 392.717 1.01818 394.863C1.12976 397.007 1.18762 398.114 1.18762 398.114C1.18762 398.114 1.27337 397.008 1.43971 394.867C1.62775 392.726 1.79305 389.549 2.259 385.423C3.06383 377.173 4.51128 365.087 7.57768 350.003C7.96718 348.121 8.36805 346.189 8.77821 344.207C9.23486 342.238 9.70288 340.218 10.1823 338.151C10.423 337.12 10.6668 336.077 10.9137 335.021C11.1865 333.972 11.4634 332.911 11.7423 331.839C12.3147 329.697 12.8426 327.501 13.4811 325.282C15.9318 316.385 18.9889 306.896 22.669 296.952C30.0364 277.072 40.183 255.403 53.8362 233.545C60.6354 222.606 68.3665 211.665 76.9706 200.896C81.2375 195.486 85.8257 190.195 90.5328 184.901C91.7354 183.599 92.9421 182.292 94.154 180.982L95.9703 179.014L97.8434 177.083C99.0915 175.795 100.344 174.502 101.601 173.204C102.887 171.938 104.179 170.666 105.473 169.391L107.417 167.479L109.411 165.602C110.742 164.353 112.078 163.1 113.419 161.844C114.787 160.619 116.159 159.389 117.535 158.156L119.603 156.309L121.718 154.501C123.13 153.299 124.545 152.093 125.966 150.884C127.414 149.709 128.867 148.531 130.323 147.35L132.509 145.579L134.744 143.855C136.234 142.709 137.729 141.558 139.229 140.405C145.302 135.895 151.525 131.484 157.97 127.299C164.435 123.148 171.009 119.069 177.838 115.325C205.023 100.158 235.004 88.4806 266.251 81.446C297.489 74.3712 329.934 71.9705 361.81 74.2637C393.698 76.56 424.771 83.5461 453.419 94.5597C476.35 103.342 497.702 114.679 516.977 127.772L600.894 62.8752C595.98 59.7576 590.996 56.7104 585.885 53.816Z" fill="white"/>
</mask>
<g mask="url(#mask0_14_123)">
<path d="M0.212402 112.332L314.922 -1.46069H600.894V182.911L5.72221 398.114H0.212402V112.332Z" fill="#ff7700"/>
</g>
<mask id="mask1_14_123" style="mask-type:luminance" maskUnits="userSpaceOnUse" x="569" y="80" width="227" height="320">
<path d="M649.827 383.091C649.824 383.341 649.804 383.536 649.794 383.758C649.769 384.187 649.746 384.605 649.723 385.014C649.68 385.828 649.64 386.601 649.602 387.331C649.212 394.97 649.005 399.044 649.005 399.044L795.863 397.184C795.863 397.184 795.482 392.41 794.771 383.457C794.654 382.116 794.53 380.694 794.4 379.196C794.332 378.449 794.264 377.681 794.193 376.895C794.157 376.508 794.12 376.114 794.081 375.717C794.039 375.345 793.996 374.97 793.951 374.59C793.591 371.554 793.196 368.24 792.771 364.657C792.256 361.085 791.733 357.248 791.098 353.167C790.754 351.13 790.398 349.03 790.032 346.867C789.849 345.788 789.661 344.692 789.47 343.58C789.258 342.473 789.042 341.35 788.823 340.212C788.377 337.939 787.92 335.607 787.45 333.213C786.951 330.827 786.394 328.389 785.843 325.894C785.565 324.647 785.283 323.386 784.998 322.111C784.685 320.842 784.367 319.557 784.046 318.26C783.39 315.668 782.771 313.014 782.036 310.327C779.195 299.559 775.644 288.057 771.331 275.99C762.701 251.869 750.734 225.517 734.52 198.879C726.441 185.551 717.247 172.198 706.984 159.04C701.889 152.435 696.423 145.955 690.789 139.485C689.353 137.891 687.91 136.291 686.464 134.686C685.74 133.884 685.014 133.082 684.287 132.279C683.543 131.491 682.798 130.701 682.051 129.91C680.556 128.334 679.057 126.75 677.552 125.163C676.014 123.608 674.469 122.048 672.919 120.484C672.143 119.704 671.366 118.923 670.588 118.141C669.795 117.374 668.999 116.605 668.204 115.836C666.607 114.305 665.005 112.768 663.398 111.227C661.759 109.722 660.114 108.211 658.465 106.696C657.639 105.942 656.812 105.187 655.984 104.43C655.14 103.69 654.296 102.948 653.449 102.206C651.753 100.729 650.052 99.2473 648.347 97.7608C646.609 96.3147 644.866 94.8633 643.118 93.4089C642.244 92.6837 641.368 91.9586 640.489 91.2324C639.597 90.5248 638.703 89.8162 637.807 89.1066C636.015 87.6935 634.217 86.2772 632.414 84.8569C630.702 83.5512 628.97 82.2579 627.232 80.9688L569.346 172.608L569.657 172.945C570.799 174.182 571.937 175.416 573.072 176.646C574.175 177.902 575.276 179.155 576.373 180.404L578.012 182.273L579.602 184.176C580.657 185.439 581.711 186.698 582.761 187.954C583.781 189.233 584.796 190.509 585.809 191.779L587.32 193.681L588.782 195.612C589.755 196.894 590.724 198.171 591.69 199.444C592.624 200.739 593.555 202.031 594.482 203.317L595.872 205.237L597.205 207.187C598.094 208.48 598.979 209.77 599.861 211.054C603.281 216.262 606.588 221.406 609.583 226.611C615.644 236.971 620.878 247.27 625.28 257.377C634.135 277.579 639.903 296.83 643.564 314.044C645.388 322.657 646.751 330.757 647.679 338.275C647.937 340.149 648.096 342.001 648.307 343.799C648.408 344.699 648.507 345.59 648.605 346.47C648.677 347.353 648.75 348.227 648.821 349.09C648.963 350.814 649.104 352.498 649.239 354.141C649.335 355.786 649.428 357.39 649.519 358.952C649.565 359.732 649.61 360.502 649.655 361.26C649.678 362.021 649.702 362.771 649.725 363.511C649.776 364.987 649.825 366.419 649.872 367.809C649.9 370.589 649.927 373.193 649.952 375.617C649.911 378.038 649.873 380.279 649.839 382.331C649.834 382.587 649.831 382.84 649.827 383.091Z" fill="white"/>
</mask>
<g mask="url(#mask1_14_123)">
<path d="M569.346 100.26L622.698 80.9688H766.909L795.863 161.014V398.824L795.253 399.044H569.346V100.26Z" fill="#ff7700"/>
<path d="M795.863 161.014L766.909 80.9688H795.863V161.014Z" fill="#ff7700"/>
</g>
<path d="M332.001 413.768C314.365 413.768 300.068 399.474 300.068 381.841C300.068 364.208 314.365 349.914 332.001 349.914C349.638 349.914 363.934 364.208 363.934 381.841C363.934 399.474 349.638 413.768 332.001 413.768ZM533.967 140.158L304.158 317.88C293.903 321.77 284.386 328.07 276.502 336.74C274.543 338.894 272.744 341.135 271.095 343.449L269.437 345.878C250.46 374.938 254.829 414.287 281.337 438.383C307.844 462.479 347.436 463.093 374.569 441.448L376.829 439.567C378.976 437.705 381.038 435.702 382.997 433.549C390.881 424.879 396.249 414.807 399.151 404.232L596.513 91.7881L533.967 140.158Z" fill="#D9D9D9"/>
</svg>
