<svg xmlns="http://www.w3.org/2000/svg" width="727" height="686" fill="none" viewBox="0 0 727 686"><path fill="#ff0" d="M309.492 211.207v262.304H290.65v-125.61H125.14v125.61h-18.841V211.207h18.841v119.699h165.51V211.207z"/><path fill="#fff" d="M600.742 473.511V247.782L497.667 424.375h-12.561L382.032 247.782v225.729h-18.841V211.207h18.841l109.355 187.677 109.355-187.677h18.841v262.304z"/><path fill="#ff0" d="M290.652.084h18.838v211.171h-18.838z"/><path fill="#ff0" d="M726.468.084V18.92H290.752V.083z"/><path fill="#ff0" d="M707.996.084h18.838v685.782h-18.838z"/><path fill="#ff0" d="M726.834 667.028v18.838H470.568v-18.838z"/><path fill="#fff" d="M382.022 685.866h-18.838V473.511h18.838z"/><path fill="#fff" d="M.766 685.866v-18.838h381.232v18.838z"/><path fill="#fff" d="M19.603 685.866H.766V.084h18.837z"/><path fill="#fff" d="M1.131 18.921V.084h201.005V18.92z"/></svg>